<svg width="20" height="20" viewBox="0 0 20 20" fill="none" xmlns="http://www.w3.org/2000/svg">
    <path d="M18.3334 5.81667V13.3333C18.3334 14.25 17.5834 15 16.6667 15H5.00002L1.66669 18.3333V3.33333C1.66669 2.41667 2.41669 1.66667 3.33335 1.66667H11.75C11.6268 2.27208 11.6396 2.89732 11.7877 3.49716C11.9357 4.09699 12.2152 4.65642 12.606 5.13495C12.9968 5.61348 13.4891 5.99916 14.0473 6.26406C14.6055 6.52897 15.2155 6.66649 15.8334 6.66667C16.775 6.66667 17.6334 6.34167 18.3334 5.81667ZM13.3334 2.5C13.3334 3.88333 14.45 5 15.8334 5C17.2167 5 18.3334 3.88333 18.3334 2.5C18.3334 1.11667 17.2167 0 15.8334 0C14.45 0 13.3334 1.11667 13.3334 2.5Z" fill="#667080"/>
</svg>
