<svg width="71" height="24" viewBox="0 0 71 24" fill="none" xmlns="http://www.w3.org/2000/svg">
    <path d="M6.50159 9.5C6.50159 10.3284 5.83001 11 5.00159 11C4.17316 11 3.50159 10.3284 3.50159 9.5C3.50159 8.67157 4.17316 8 5.00159 8C5.83001 8 6.50159 8.67157 6.50159 9.5Z" fill="#6C757D"/>
    <path d="M2.50159 5C1.39702 5 0.501587 5.89543 0.501587 7V17C0.501587 18.1046 1.39702 19 2.50159 19H14.5016C15.6062 19 16.5016 18.1046 16.5016 17V7C16.5016 5.89543 15.6062 5 14.5016 5H2.50159ZM14.5016 6C15.0539 6 15.5016 6.44772 15.5016 7V13.5L11.7252 11.5528C11.5327 11.4566 11.3002 11.4943 11.148 11.6465L7.43788 15.3566L4.77894 13.584C4.58063 13.4518 4.31657 13.4779 4.14803 13.6465L1.50159 16V7C1.50159 6.44772 1.9493 6 2.50159 6H14.5016Z" fill="#6C757D"/>
    <path d="M33.9091 18V6.36364H35.3182V16.75H40.7273V18H33.9091ZM46.2727 18.1818C45.4848 18.1818 44.7936 17.9943 44.1989 17.6193C43.608 17.2443 43.1458 16.7197 42.8125 16.0455C42.483 15.3712 42.3182 14.5833 42.3182 13.6818C42.3182 12.7727 42.483 11.9792 42.8125 11.3011C43.1458 10.6231 43.608 10.0966 44.1989 9.72159C44.7936 9.34659 45.4848 9.15909 46.2727 9.15909C47.0606 9.15909 47.75 9.34659 48.3409 9.72159C48.9356 10.0966 49.3977 10.6231 49.7273 11.3011C50.0606 11.9792 50.2273 12.7727 50.2273 13.6818C50.2273 14.5833 50.0606 15.3712 49.7273 16.0455C49.3977 16.7197 48.9356 17.2443 48.3409 17.6193C47.75 17.9943 47.0606 18.1818 46.2727 18.1818ZM46.2727 16.9773C46.8712 16.9773 47.3636 16.8239 47.75 16.517C48.1364 16.2102 48.4223 15.8068 48.608 15.3068C48.7936 14.8068 48.8864 14.2652 48.8864 13.6818C48.8864 13.0985 48.7936 12.5549 48.608 12.0511C48.4223 11.5473 48.1364 11.1402 47.75 10.8295C47.3636 10.5189 46.8712 10.3636 46.2727 10.3636C45.6742 10.3636 45.1818 10.5189 44.7955 10.8295C44.4091 11.1402 44.1231 11.5473 43.9375 12.0511C43.7519 12.5549 43.6591 13.0985 43.6591 13.6818C43.6591 14.2652 43.7519 14.8068 43.9375 15.3068C44.1231 15.8068 44.4091 16.2102 44.7955 16.517C45.1818 16.8239 45.6742 16.9773 46.2727 16.9773ZM55.7969 21.4545C55.1491 21.4545 54.5923 21.3712 54.1264 21.2045C53.6605 21.0417 53.2723 20.8258 52.9616 20.5568C52.6548 20.2917 52.4105 20.0076 52.2287 19.7045L53.2969 18.9545C53.4181 19.1136 53.5715 19.2955 53.7571 19.5C53.9427 19.7083 54.1965 19.8883 54.5185 20.0398C54.8442 20.1951 55.2704 20.2727 55.7969 20.2727C56.5014 20.2727 57.0829 20.1023 57.5412 19.7614C57.9995 19.4205 58.2287 18.8864 58.2287 18.1591V16.3864H58.1151C58.0166 16.5455 57.8764 16.7424 57.6946 16.9773C57.5166 17.2083 57.259 17.4148 56.9219 17.5966C56.5885 17.7746 56.1378 17.8636 55.5696 17.8636C54.8651 17.8636 54.2325 17.697 53.6719 17.3636C53.1151 17.0303 52.6738 16.5455 52.348 15.9091C52.026 15.2727 51.8651 14.5 51.8651 13.5909C51.8651 12.697 52.0223 11.9186 52.3366 11.2557C52.651 10.589 53.0885 10.0739 53.6491 9.71023C54.2098 9.3428 54.8575 9.15909 55.5923 9.15909C56.1605 9.15909 56.6113 9.25379 56.9446 9.44318C57.2817 9.62879 57.5393 9.84091 57.7173 10.0795C57.8991 10.3144 58.0393 10.5076 58.1378 10.6591H58.2741V9.27273H59.5696V18.25C59.5696 19 59.3991 19.6098 59.0582 20.0795C58.7211 20.553 58.2666 20.8996 57.6946 21.1193C57.1264 21.3428 56.4938 21.4545 55.7969 21.4545ZM55.7514 16.6591C56.2893 16.6591 56.7438 16.536 57.1151 16.2898C57.4863 16.0436 57.7685 15.6894 57.9616 15.2273C58.1548 14.7652 58.2514 14.2121 58.2514 13.5682C58.2514 12.9394 58.1567 12.3845 57.9673 11.9034C57.7779 11.4223 57.4976 11.0455 57.1264 10.7727C56.7552 10.5 56.2969 10.3636 55.7514 10.3636C55.1832 10.3636 54.7098 10.5076 54.331 10.7955C53.956 11.0833 53.6738 11.4697 53.4844 11.9545C53.2988 12.4394 53.206 12.9773 53.206 13.5682C53.206 14.1742 53.3007 14.7102 53.4901 15.1761C53.6832 15.6383 53.9673 16.0019 54.3423 16.267C54.7211 16.5284 55.1908 16.6591 55.7514 16.6591ZM65.5696 18.1818C64.7817 18.1818 64.0904 17.9943 63.4957 17.6193C62.9048 17.2443 62.4427 16.7197 62.1094 16.0455C61.7798 15.3712 61.6151 14.5833 61.6151 13.6818C61.6151 12.7727 61.7798 11.9792 62.1094 11.3011C62.4427 10.6231 62.9048 10.0966 63.4957 9.72159C64.0904 9.34659 64.7817 9.15909 65.5696 9.15909C66.3575 9.15909 67.0469 9.34659 67.6378 9.72159C68.2325 10.0966 68.6946 10.6231 69.0241 11.3011C69.3575 11.9792 69.5241 12.7727 69.5241 13.6818C69.5241 14.5833 69.3575 15.3712 69.0241 16.0455C68.6946 16.7197 68.2325 17.2443 67.6378 17.6193C67.0469 17.9943 66.3575 18.1818 65.5696 18.1818ZM65.5696 16.9773C66.1681 16.9773 66.6605 16.8239 67.0469 16.517C67.4332 16.2102 67.7192 15.8068 67.9048 15.3068C68.0904 14.8068 68.1832 14.2652 68.1832 13.6818C68.1832 13.0985 68.0904 12.5549 67.9048 12.0511C67.7192 11.5473 67.4332 11.1402 67.0469 10.8295C66.6605 10.5189 66.1681 10.3636 65.5696 10.3636C64.9711 10.3636 64.4787 10.5189 64.0923 10.8295C63.706 11.1402 63.42 11.5473 63.2344 12.0511C63.0488 12.5549 62.956 13.0985 62.956 13.6818C62.956 14.2652 63.0488 14.8068 63.2344 15.3068C63.42 15.8068 63.706 16.2102 64.0923 16.517C64.4787 16.8239 64.9711 16.9773 65.5696 16.9773Z" fill="#6C757D"/>
</svg>
