<svg width="70" height="24" viewBox="0 0 70 24" fill="none" xmlns="http://www.w3.org/2000/svg">
    <path d="M6.00159 9.5C6.00159 10.3284 5.33001 11 4.50159 11C3.67316 11 3.00159 10.3284 3.00159 9.5C3.00159 8.67157 3.67316 8 4.50159 8C5.33001 8 6.00159 8.67157 6.00159 9.5Z" fill="white"/>
    <path d="M2.00159 5C0.897017 5 0.00158691 5.89543 0.00158691 7V17C0.00158691 18.1046 0.897017 19 2.00159 19H14.0016C15.1062 19 16.0016 18.1046 16.0016 17V7C16.0016 5.89543 15.1062 5 14.0016 5H2.00159ZM14.0016 6C14.5539 6 15.0016 6.44772 15.0016 7V13.5L11.2252 11.5528C11.0327 11.4566 10.8002 11.4943 10.648 11.6465L6.93788 15.3566L4.27894 13.584C4.08063 13.4518 3.81657 13.4779 3.64803 13.6465L1.00159 16V7C1.00159 6.44772 1.4493 6 2.00159 6H14.0016Z" fill="white"/>
    <path d="M33.4091 18V6.36364H34.8182V16.75H40.2273V18H33.4091ZM45.7727 18.1818C44.9848 18.1818 44.2936 17.9943 43.6989 17.6193C43.108 17.2443 42.6458 16.7197 42.3125 16.0455C41.983 15.3712 41.8182 14.5833 41.8182 13.6818C41.8182 12.7727 41.983 11.9792 42.3125 11.3011C42.6458 10.6231 43.108 10.0966 43.6989 9.72159C44.2936 9.34659 44.9848 9.15909 45.7727 9.15909C46.5606 9.15909 47.25 9.34659 47.8409 9.72159C48.4356 10.0966 48.8977 10.6231 49.2273 11.3011C49.5606 11.9792 49.7273 12.7727 49.7273 13.6818C49.7273 14.5833 49.5606 15.3712 49.2273 16.0455C48.8977 16.7197 48.4356 17.2443 47.8409 17.6193C47.25 17.9943 46.5606 18.1818 45.7727 18.1818ZM45.7727 16.9773C46.3712 16.9773 46.8636 16.8239 47.25 16.517C47.6364 16.2102 47.9223 15.8068 48.108 15.3068C48.2936 14.8068 48.3864 14.2652 48.3864 13.6818C48.3864 13.0985 48.2936 12.5549 48.108 12.0511C47.9223 11.5473 47.6364 11.1402 47.25 10.8295C46.8636 10.5189 46.3712 10.3636 45.7727 10.3636C45.1742 10.3636 44.6818 10.5189 44.2955 10.8295C43.9091 11.1402 43.6231 11.5473 43.4375 12.0511C43.2519 12.5549 43.1591 13.0985 43.1591 13.6818C43.1591 14.2652 43.2519 14.8068 43.4375 15.3068C43.6231 15.8068 43.9091 16.2102 44.2955 16.517C44.6818 16.8239 45.1742 16.9773 45.7727 16.9773ZM55.2969 21.4545C54.6491 21.4545 54.0923 21.3712 53.6264 21.2045C53.1605 21.0417 52.7723 20.8258 52.4616 20.5568C52.1548 20.2917 51.9105 20.0076 51.7287 19.7045L52.7969 18.9545C52.9181 19.1136 53.0715 19.2955 53.2571 19.5C53.4427 19.7083 53.6965 19.8883 54.0185 20.0398C54.3442 20.1951 54.7704 20.2727 55.2969 20.2727C56.0014 20.2727 56.5829 20.1023 57.0412 19.7614C57.4995 19.4205 57.7287 18.8864 57.7287 18.1591V16.3864H57.6151C57.5166 16.5455 57.3764 16.7424 57.1946 16.9773C57.0166 17.2083 56.759 17.4148 56.4219 17.5966C56.0885 17.7746 55.6378 17.8636 55.0696 17.8636C54.3651 17.8636 53.7325 17.697 53.1719 17.3636C52.6151 17.0303 52.1738 16.5455 51.848 15.9091C51.526 15.2727 51.3651 14.5 51.3651 13.5909C51.3651 12.697 51.5223 11.9186 51.8366 11.2557C52.151 10.589 52.5885 10.0739 53.1491 9.71023C53.7098 9.3428 54.3575 9.15909 55.0923 9.15909C55.6605 9.15909 56.1113 9.25379 56.4446 9.44318C56.7817 9.62879 57.0393 9.84091 57.2173 10.0795C57.3991 10.3144 57.5393 10.5076 57.6378 10.6591H57.7741V9.27273H59.0696V18.25C59.0696 19 58.8991 19.6098 58.5582 20.0795C58.2211 20.553 57.7666 20.8996 57.1946 21.1193C56.6264 21.3428 55.9938 21.4545 55.2969 21.4545ZM55.2514 16.6591C55.7893 16.6591 56.2438 16.536 56.6151 16.2898C56.9863 16.0436 57.2685 15.6894 57.4616 15.2273C57.6548 14.7652 57.7514 14.2121 57.7514 13.5682C57.7514 12.9394 57.6567 12.3845 57.4673 11.9034C57.2779 11.4223 56.9976 11.0455 56.6264 10.7727C56.2552 10.5 55.7969 10.3636 55.2514 10.3636C54.6832 10.3636 54.2098 10.5076 53.831 10.7955C53.456 11.0833 53.1738 11.4697 52.9844 11.9545C52.7988 12.4394 52.706 12.9773 52.706 13.5682C52.706 14.1742 52.8007 14.7102 52.9901 15.1761C53.1832 15.6383 53.4673 16.0019 53.8423 16.267C54.2211 16.5284 54.6908 16.6591 55.2514 16.6591ZM65.0696 18.1818C64.2817 18.1818 63.5904 17.9943 62.9957 17.6193C62.4048 17.2443 61.9427 16.7197 61.6094 16.0455C61.2798 15.3712 61.1151 14.5833 61.1151 13.6818C61.1151 12.7727 61.2798 11.9792 61.6094 11.3011C61.9427 10.6231 62.4048 10.0966 62.9957 9.72159C63.5904 9.34659 64.2817 9.15909 65.0696 9.15909C65.8575 9.15909 66.5469 9.34659 67.1378 9.72159C67.7325 10.0966 68.1946 10.6231 68.5241 11.3011C68.8575 11.9792 69.0241 12.7727 69.0241 13.6818C69.0241 14.5833 68.8575 15.3712 68.5241 16.0455C68.1946 16.7197 67.7325 17.2443 67.1378 17.6193C66.5469 17.9943 65.8575 18.1818 65.0696 18.1818ZM65.0696 16.9773C65.6681 16.9773 66.1605 16.8239 66.5469 16.517C66.9332 16.2102 67.2192 15.8068 67.4048 15.3068C67.5904 14.8068 67.6832 14.2652 67.6832 13.6818C67.6832 13.0985 67.5904 12.5549 67.4048 12.0511C67.2192 11.5473 66.9332 11.1402 66.5469 10.8295C66.1605 10.5189 65.6681 10.3636 65.0696 10.3636C64.4711 10.3636 63.9787 10.5189 63.5923 10.8295C63.206 11.1402 62.92 11.5473 62.7344 12.0511C62.5488 12.5549 62.456 13.0985 62.456 13.6818C62.456 14.2652 62.5488 14.8068 62.7344 15.3068C62.92 15.8068 63.206 16.2102 63.5923 16.517C63.9787 16.8239 64.4711 16.9773 65.0696 16.9773Z" fill="white"/>
</svg>
